<mxfile host="Electron" agent="Mozilla/5.0 (Windows NT 10.0; Win64; x64) AppleWebKit/537.36 (KHTML, like Gecko) draw.io/24.7.17 Chrome/128.0.6613.36 Electron/32.0.1 Safari/537.36" version="24.7.17">
  <diagram name="Page-1" id="hI6Cq8jMHpqSvXByGPA5">
    <mxGraphModel dx="1433" dy="690" grid="1" gridSize="10" guides="1" tooltips="1" connect="1" arrows="1" fold="1" page="1" pageScale="1" pageWidth="850" pageHeight="1100" math="0" shadow="0">
      <root>
        <mxCell id="0" />
        <mxCell id="1" parent="0" />
        <mxCell id="F4lnl1_emO5UcTYqvdqc-117" value="Staff (Sales Associate/Cashier)" style="shape=umlLifeline;perimeter=lifelinePerimeter;whiteSpace=wrap;container=1;dropTarget=0;collapsible=0;recursiveResize=0;outlineConnect=0;portConstraint=eastwest;newEdgeStyle={&quot;edgeStyle&quot;:&quot;elbowEdgeStyle&quot;,&quot;elbow&quot;:&quot;vertical&quot;,&quot;curved&quot;:0,&quot;rounded&quot;:0};size=65;" vertex="1" parent="1">
          <mxGeometry x="420" y="1090" width="230" height="2153" as="geometry" />
        </mxCell>
        <mxCell id="F4lnl1_emO5UcTYqvdqc-118" value="Payment Interface" style="shape=umlLifeline;perimeter=lifelinePerimeter;whiteSpace=wrap;container=1;dropTarget=0;collapsible=0;recursiveResize=0;outlineConnect=0;portConstraint=eastwest;newEdgeStyle={&quot;edgeStyle&quot;:&quot;elbowEdgeStyle&quot;,&quot;elbow&quot;:&quot;vertical&quot;,&quot;curved&quot;:0,&quot;rounded&quot;:0};size=65;" vertex="1" parent="1">
          <mxGeometry x="746" y="1090" width="150" height="2153" as="geometry" />
        </mxCell>
        <mxCell id="F4lnl1_emO5UcTYqvdqc-119" value="Payment Controller" style="shape=umlLifeline;perimeter=lifelinePerimeter;whiteSpace=wrap;container=1;dropTarget=0;collapsible=0;recursiveResize=0;outlineConnect=0;portConstraint=eastwest;newEdgeStyle={&quot;edgeStyle&quot;:&quot;elbowEdgeStyle&quot;,&quot;elbow&quot;:&quot;vertical&quot;,&quot;curved&quot;:0,&quot;rounded&quot;:0};size=65;" vertex="1" parent="1">
          <mxGeometry x="992" y="1090" width="157" height="2153" as="geometry" />
        </mxCell>
        <mxCell id="F4lnl1_emO5UcTYqvdqc-120" value="advance_payments Table" style="shape=umlLifeline;perimeter=lifelinePerimeter;whiteSpace=wrap;container=1;dropTarget=0;collapsible=0;recursiveResize=0;outlineConnect=0;portConstraint=eastwest;newEdgeStyle={&quot;edgeStyle&quot;:&quot;elbowEdgeStyle&quot;,&quot;elbow&quot;:&quot;vertical&quot;,&quot;curved&quot;:0,&quot;rounded&quot;:0};size=65;" vertex="1" parent="1">
          <mxGeometry x="1261" y="1090" width="194" height="2153" as="geometry" />
        </mxCell>
        <mxCell id="F4lnl1_emO5UcTYqvdqc-121" value="Orders/Custom Orders Table" style="shape=umlLifeline;perimeter=lifelinePerimeter;whiteSpace=wrap;container=1;dropTarget=0;collapsible=0;recursiveResize=0;outlineConnect=0;portConstraint=eastwest;newEdgeStyle={&quot;edgeStyle&quot;:&quot;elbowEdgeStyle&quot;,&quot;elbow&quot;:&quot;vertical&quot;,&quot;curved&quot;:0,&quot;rounded&quot;:0};size=65;" vertex="1" parent="1">
          <mxGeometry x="1505" y="1090" width="221" height="2153" as="geometry" />
        </mxCell>
        <mxCell id="F4lnl1_emO5UcTYqvdqc-122" value="Notification System" style="shape=umlLifeline;perimeter=lifelinePerimeter;whiteSpace=wrap;container=1;dropTarget=0;collapsible=0;recursiveResize=0;outlineConnect=0;portConstraint=eastwest;newEdgeStyle={&quot;edgeStyle&quot;:&quot;elbowEdgeStyle&quot;,&quot;elbow&quot;:&quot;vertical&quot;,&quot;curved&quot;:0,&quot;rounded&quot;:0};size=65;" vertex="1" parent="1">
          <mxGeometry x="1776" y="1090" width="157" height="2153" as="geometry" />
        </mxCell>
        <mxCell id="F4lnl1_emO5UcTYqvdqc-123" value="Dashboard" style="shape=umlLifeline;perimeter=lifelinePerimeter;whiteSpace=wrap;container=1;dropTarget=0;collapsible=0;recursiveResize=0;outlineConnect=0;portConstraint=eastwest;newEdgeStyle={&quot;edgeStyle&quot;:&quot;elbowEdgeStyle&quot;,&quot;elbow&quot;:&quot;vertical&quot;,&quot;curved&quot;:0,&quot;rounded&quot;:0};size=65;" vertex="1" parent="1">
          <mxGeometry x="1983" y="1090" width="150" height="2153" as="geometry" />
        </mxCell>
        <mxCell id="F4lnl1_emO5UcTYqvdqc-124" value="Receipt Generator" style="shape=umlLifeline;perimeter=lifelinePerimeter;whiteSpace=wrap;container=1;dropTarget=0;collapsible=0;recursiveResize=0;outlineConnect=0;portConstraint=eastwest;newEdgeStyle={&quot;edgeStyle&quot;:&quot;elbowEdgeStyle&quot;,&quot;elbow&quot;:&quot;vertical&quot;,&quot;curved&quot;:0,&quot;rounded&quot;:0};size=65;" vertex="1" parent="1">
          <mxGeometry x="2183" y="1090" width="150" height="2153" as="geometry" />
        </mxCell>
        <mxCell id="F4lnl1_emO5UcTYqvdqc-125" value="alt" style="shape=umlFrame;dashed=1;pointerEvents=0;dropTarget=0;strokeColor=#B3B3B3;height=20;width=30" vertex="1" parent="1">
          <mxGeometry x="1059" y="1593" width="568" height="155" as="geometry" />
        </mxCell>
        <mxCell id="F4lnl1_emO5UcTYqvdqc-126" value="[Order exists for this customer]" style="text;strokeColor=none;fillColor=none;align=center;verticalAlign=middle;whiteSpace=wrap;" vertex="1" parent="F4lnl1_emO5UcTYqvdqc-125">
          <mxGeometry x="30" width="538" height="20" as="geometry" />
        </mxCell>
        <mxCell id="F4lnl1_emO5UcTYqvdqc-127" value="alt" style="shape=umlFrame;dashed=1;pointerEvents=0;dropTarget=0;strokeColor=#B3B3B3;height=20;width=30" vertex="1" parent="1">
          <mxGeometry x="810" y="2412" width="559" height="310" as="geometry" />
        </mxCell>
        <mxCell id="F4lnl1_emO5UcTYqvdqc-128" value="[Admin Role]" style="text;strokeColor=none;fillColor=none;align=center;verticalAlign=middle;whiteSpace=wrap;" vertex="1" parent="F4lnl1_emO5UcTYqvdqc-127">
          <mxGeometry x="30" width="529" height="20" as="geometry" />
        </mxCell>
        <mxCell id="F4lnl1_emO5UcTYqvdqc-129" value="[Store Manager/Sales Associate/Cashier]" style="shape=line;dashed=1;whiteSpace=wrap;verticalAlign=top;labelPosition=center;verticalLabelPosition=middle;align=center;strokeColor=#B3B3B3;" vertex="1" parent="F4lnl1_emO5UcTYqvdqc-127">
          <mxGeometry y="160" width="559" height="3" as="geometry" />
        </mxCell>
        <mxCell id="F4lnl1_emO5UcTYqvdqc-130" value="alt" style="shape=umlFrame;dashed=1;pointerEvents=0;dropTarget=0;strokeColor=#B3B3B3;height=20;width=30" vertex="1" parent="1">
          <mxGeometry x="524" y="2786" width="557" height="155" as="geometry" />
        </mxCell>
        <mxCell id="F4lnl1_emO5UcTYqvdqc-131" value="[Payment processing fails]" style="text;strokeColor=none;fillColor=none;align=center;verticalAlign=middle;whiteSpace=wrap;" vertex="1" parent="F4lnl1_emO5UcTYqvdqc-130">
          <mxGeometry x="30" width="527" height="20" as="geometry" />
        </mxCell>
        <mxCell id="F4lnl1_emO5UcTYqvdqc-132" value="Open advance payment form" style="verticalAlign=bottom;edgeStyle=elbowEdgeStyle;elbow=vertical;curved=0;rounded=0;endArrow=block;" edge="1" parent="1" source="F4lnl1_emO5UcTYqvdqc-117" target="F4lnl1_emO5UcTYqvdqc-118">
          <mxGeometry relative="1" as="geometry">
            <Array as="points">
              <mxPoint x="687" y="1199" />
            </Array>
          </mxGeometry>
        </mxCell>
        <mxCell id="F4lnl1_emO5UcTYqvdqc-133" value="Request payment form" style="verticalAlign=bottom;edgeStyle=elbowEdgeStyle;elbow=vertical;curved=0;rounded=0;endArrow=block;" edge="1" parent="1" source="F4lnl1_emO5UcTYqvdqc-118" target="F4lnl1_emO5UcTYqvdqc-119">
          <mxGeometry relative="1" as="geometry">
            <Array as="points">
              <mxPoint x="954" y="1253" />
            </Array>
          </mxGeometry>
        </mxCell>
        <mxCell id="F4lnl1_emO5UcTYqvdqc-134" value="Enter advance payment details" style="verticalAlign=bottom;edgeStyle=elbowEdgeStyle;elbow=vertical;curved=0;rounded=0;endArrow=block;" edge="1" parent="1" source="F4lnl1_emO5UcTYqvdqc-117" target="F4lnl1_emO5UcTYqvdqc-118">
          <mxGeometry relative="1" as="geometry">
            <Array as="points">
              <mxPoint x="687" y="1307" />
            </Array>
          </mxGeometry>
        </mxCell>
        <mxCell id="F4lnl1_emO5UcTYqvdqc-135" value="Submit advance payment" style="verticalAlign=bottom;edgeStyle=elbowEdgeStyle;elbow=vertical;curved=0;rounded=0;endArrow=block;" edge="1" parent="1" source="F4lnl1_emO5UcTYqvdqc-118" target="F4lnl1_emO5UcTYqvdqc-119">
          <mxGeometry relative="1" as="geometry">
            <Array as="points">
              <mxPoint x="954" y="1465" />
            </Array>
          </mxGeometry>
        </mxCell>
        <mxCell id="F4lnl1_emO5UcTYqvdqc-136" value="Insert advance payment record" style="verticalAlign=bottom;edgeStyle=elbowEdgeStyle;elbow=vertical;curved=0;rounded=0;endArrow=block;" edge="1" parent="1" source="F4lnl1_emO5UcTYqvdqc-119" target="F4lnl1_emO5UcTYqvdqc-120">
          <mxGeometry relative="1" as="geometry">
            <Array as="points">
              <mxPoint x="1223" y="1519" />
            </Array>
          </mxGeometry>
        </mxCell>
        <mxCell id="F4lnl1_emO5UcTYqvdqc-137" value="Return payment_id" style="verticalAlign=bottom;edgeStyle=elbowEdgeStyle;elbow=vertical;curved=0;rounded=0;dashed=1;dashPattern=2 3;endArrow=block;" edge="1" parent="1" source="F4lnl1_emO5UcTYqvdqc-120" target="F4lnl1_emO5UcTYqvdqc-119">
          <mxGeometry relative="1" as="geometry">
            <Array as="points">
              <mxPoint x="1226" y="1573" />
            </Array>
          </mxGeometry>
        </mxCell>
        <mxCell id="F4lnl1_emO5UcTYqvdqc-138" value="Update order payment status" style="verticalAlign=bottom;edgeStyle=elbowEdgeStyle;elbow=vertical;curved=0;rounded=0;endArrow=block;" edge="1" parent="1" source="F4lnl1_emO5UcTYqvdqc-119" target="F4lnl1_emO5UcTYqvdqc-121">
          <mxGeometry relative="1" as="geometry">
            <Array as="points">
              <mxPoint x="1351" y="1674" />
            </Array>
          </mxGeometry>
        </mxCell>
        <mxCell id="F4lnl1_emO5UcTYqvdqc-139" value="Confirm update" style="verticalAlign=bottom;edgeStyle=elbowEdgeStyle;elbow=vertical;curved=0;rounded=0;dashed=1;dashPattern=2 3;endArrow=block;" edge="1" parent="1" source="F4lnl1_emO5UcTYqvdqc-121" target="F4lnl1_emO5UcTYqvdqc-119">
          <mxGeometry relative="1" as="geometry">
            <Array as="points">
              <mxPoint x="1354" y="1728" />
            </Array>
          </mxGeometry>
        </mxCell>
        <mxCell id="F4lnl1_emO5UcTYqvdqc-140" value="Create payment notification" style="verticalAlign=bottom;edgeStyle=elbowEdgeStyle;elbow=vertical;curved=0;rounded=0;endArrow=block;" edge="1" parent="1" source="F4lnl1_emO5UcTYqvdqc-119" target="F4lnl1_emO5UcTYqvdqc-122">
          <mxGeometry relative="1" as="geometry">
            <Array as="points">
              <mxPoint x="1471" y="1792" />
            </Array>
          </mxGeometry>
        </mxCell>
        <mxCell id="F4lnl1_emO5UcTYqvdqc-141" value="Insert into notifications table" style="curved=1;endArrow=block;rounded=0;" edge="1" parent="1" source="F4lnl1_emO5UcTYqvdqc-122" target="F4lnl1_emO5UcTYqvdqc-122">
          <mxGeometry relative="1" as="geometry">
            <Array as="points">
              <mxPoint x="1906" y="1846" />
              <mxPoint x="1906" y="1876" />
            </Array>
          </mxGeometry>
        </mxCell>
        <mxCell id="F4lnl1_emO5UcTYqvdqc-142" value="Show success notification" style="verticalAlign=bottom;edgeStyle=elbowEdgeStyle;elbow=vertical;curved=0;rounded=0;dashed=1;dashPattern=2 3;endArrow=block;" edge="1" parent="1" source="F4lnl1_emO5UcTYqvdqc-122" target="F4lnl1_emO5UcTYqvdqc-117">
          <mxGeometry relative="1" as="geometry">
            <Array as="points">
              <mxPoint x="1206" y="1930" />
            </Array>
          </mxGeometry>
        </mxCell>
        <mxCell id="F4lnl1_emO5UcTYqvdqc-143" value="Generate payment receipt" style="verticalAlign=bottom;edgeStyle=elbowEdgeStyle;elbow=vertical;curved=0;rounded=0;endArrow=block;" edge="1" parent="1" source="F4lnl1_emO5UcTYqvdqc-119" target="F4lnl1_emO5UcTYqvdqc-124">
          <mxGeometry relative="1" as="geometry">
            <Array as="points">
              <mxPoint x="1673" y="1984" />
            </Array>
          </mxGeometry>
        </mxCell>
        <mxCell id="F4lnl1_emO5UcTYqvdqc-144" value="Receipt generated" style="verticalAlign=bottom;edgeStyle=elbowEdgeStyle;elbow=vertical;curved=0;rounded=0;dashed=1;dashPattern=2 3;endArrow=block;" edge="1" parent="1" source="F4lnl1_emO5UcTYqvdqc-124" target="F4lnl1_emO5UcTYqvdqc-119">
          <mxGeometry relative="1" as="geometry">
            <Array as="points">
              <mxPoint x="1676" y="2038" />
            </Array>
          </mxGeometry>
        </mxCell>
        <mxCell id="F4lnl1_emO5UcTYqvdqc-145" value="Print receipt" style="verticalAlign=bottom;edgeStyle=elbowEdgeStyle;elbow=vertical;curved=0;rounded=0;endArrow=block;" edge="1" parent="1" source="F4lnl1_emO5UcTYqvdqc-117" target="F4lnl1_emO5UcTYqvdqc-124">
          <mxGeometry relative="1" as="geometry">
            <Array as="points">
              <mxPoint x="1405" y="2092" />
            </Array>
          </mxGeometry>
        </mxCell>
        <mxCell id="F4lnl1_emO5UcTYqvdqc-146" value="Receipt printed" style="verticalAlign=bottom;edgeStyle=elbowEdgeStyle;elbow=vertical;curved=0;rounded=0;dashed=1;dashPattern=2 3;endArrow=block;" edge="1" parent="1" source="F4lnl1_emO5UcTYqvdqc-124" target="F4lnl1_emO5UcTYqvdqc-117">
          <mxGeometry relative="1" as="geometry">
            <Array as="points">
              <mxPoint x="1408" y="2146" />
            </Array>
          </mxGeometry>
        </mxCell>
        <mxCell id="F4lnl1_emO5UcTYqvdqc-147" value="Provide receipt to customer" style="curved=1;dashed=1;dashPattern=2 3;endArrow=block;rounded=0;" edge="1" parent="1" source="F4lnl1_emO5UcTYqvdqc-117" target="F4lnl1_emO5UcTYqvdqc-117">
          <mxGeometry relative="1" as="geometry">
            <Array as="points">
              <mxPoint x="586" y="2200" />
              <mxPoint x="586" y="2230" />
            </Array>
          </mxGeometry>
        </mxCell>
        <mxCell id="F4lnl1_emO5UcTYqvdqc-148" value="Refresh payment data" style="verticalAlign=bottom;edgeStyle=elbowEdgeStyle;elbow=vertical;curved=0;rounded=0;endArrow=block;" edge="1" parent="1" source="F4lnl1_emO5UcTYqvdqc-119" target="F4lnl1_emO5UcTYqvdqc-123">
          <mxGeometry relative="1" as="geometry">
            <Array as="points">
              <mxPoint x="1573" y="2284" />
            </Array>
          </mxGeometry>
        </mxCell>
        <mxCell id="F4lnl1_emO5UcTYqvdqc-149" value="Display updated advance payments list" style="verticalAlign=bottom;edgeStyle=elbowEdgeStyle;elbow=vertical;curved=0;rounded=0;dashed=1;dashPattern=2 3;endArrow=block;" edge="1" parent="1" source="F4lnl1_emO5UcTYqvdqc-123" target="F4lnl1_emO5UcTYqvdqc-117">
          <mxGeometry relative="1" as="geometry">
            <Array as="points">
              <mxPoint x="1308" y="2338" />
            </Array>
          </mxGeometry>
        </mxCell>
        <mxCell id="F4lnl1_emO5UcTYqvdqc-150" value="View advance payments" style="verticalAlign=bottom;edgeStyle=elbowEdgeStyle;elbow=vertical;curved=0;rounded=0;endArrow=block;" edge="1" parent="1" source="F4lnl1_emO5UcTYqvdqc-117" target="F4lnl1_emO5UcTYqvdqc-118">
          <mxGeometry relative="1" as="geometry">
            <Array as="points">
              <mxPoint x="687" y="2392" />
            </Array>
          </mxGeometry>
        </mxCell>
        <mxCell id="F4lnl1_emO5UcTYqvdqc-151" value="Query all advance payments" style="verticalAlign=bottom;edgeStyle=elbowEdgeStyle;elbow=vertical;curved=0;rounded=0;endArrow=block;" edge="1" parent="1" source="F4lnl1_emO5UcTYqvdqc-118" target="F4lnl1_emO5UcTYqvdqc-120">
          <mxGeometry relative="1" as="geometry">
            <Array as="points">
              <mxPoint x="1098" y="2493" />
            </Array>
          </mxGeometry>
        </mxCell>
        <mxCell id="F4lnl1_emO5UcTYqvdqc-152" value="Return all payments" style="verticalAlign=bottom;edgeStyle=elbowEdgeStyle;elbow=vertical;curved=0;rounded=0;dashed=1;dashPattern=2 3;endArrow=block;" edge="1" parent="1" source="F4lnl1_emO5UcTYqvdqc-120" target="F4lnl1_emO5UcTYqvdqc-118">
          <mxGeometry relative="1" as="geometry">
            <Array as="points">
              <mxPoint x="1101" y="2547" />
            </Array>
          </mxGeometry>
        </mxCell>
        <mxCell id="F4lnl1_emO5UcTYqvdqc-153" value="Query payments by branch_id" style="verticalAlign=bottom;edgeStyle=elbowEdgeStyle;elbow=vertical;curved=0;rounded=0;endArrow=block;" edge="1" parent="1" source="F4lnl1_emO5UcTYqvdqc-118" target="F4lnl1_emO5UcTYqvdqc-120">
          <mxGeometry relative="1" as="geometry">
            <Array as="points">
              <mxPoint x="1098" y="2648" />
            </Array>
          </mxGeometry>
        </mxCell>
        <mxCell id="F4lnl1_emO5UcTYqvdqc-154" value="Return branch payments" style="verticalAlign=bottom;edgeStyle=elbowEdgeStyle;elbow=vertical;curved=0;rounded=0;dashed=1;dashPattern=2 3;endArrow=block;" edge="1" parent="1" source="F4lnl1_emO5UcTYqvdqc-120" target="F4lnl1_emO5UcTYqvdqc-118">
          <mxGeometry relative="1" as="geometry">
            <Array as="points">
              <mxPoint x="1101" y="2702" />
            </Array>
          </mxGeometry>
        </mxCell>
        <mxCell id="F4lnl1_emO5UcTYqvdqc-155" value="Display advance payments list" style="verticalAlign=bottom;edgeStyle=elbowEdgeStyle;elbow=vertical;curved=0;rounded=0;dashed=1;dashPattern=2 3;endArrow=block;" edge="1" parent="1" source="F4lnl1_emO5UcTYqvdqc-118" target="F4lnl1_emO5UcTYqvdqc-117">
          <mxGeometry relative="1" as="geometry">
            <Array as="points">
              <mxPoint x="690" y="2766" />
            </Array>
          </mxGeometry>
        </mxCell>
        <mxCell id="F4lnl1_emO5UcTYqvdqc-156" value="Return error message" style="verticalAlign=bottom;edgeStyle=elbowEdgeStyle;elbow=vertical;curved=0;rounded=0;dashed=1;dashPattern=2 3;endArrow=block;" edge="1" parent="1" source="F4lnl1_emO5UcTYqvdqc-119" target="F4lnl1_emO5UcTYqvdqc-118">
          <mxGeometry relative="1" as="geometry">
            <Array as="points">
              <mxPoint x="957" y="2867" />
            </Array>
          </mxGeometry>
        </mxCell>
        <mxCell id="F4lnl1_emO5UcTYqvdqc-157" value="Display error notification" style="verticalAlign=bottom;edgeStyle=elbowEdgeStyle;elbow=vertical;curved=0;rounded=0;dashed=1;dashPattern=2 3;endArrow=block;" edge="1" parent="1" source="F4lnl1_emO5UcTYqvdqc-118" target="F4lnl1_emO5UcTYqvdqc-117">
          <mxGeometry relative="1" as="geometry">
            <Array as="points">
              <mxPoint x="690" y="2921" />
            </Array>
          </mxGeometry>
        </mxCell>
        <mxCell id="F4lnl1_emO5UcTYqvdqc-158" value="Fields: customer_name, customer_phone,&#xa;reference_number, advance_amount,&#xa;balance_amount, payment_method,&#xa;notes, payment_date, branch_id" style="fillColor=#ffff88;strokeColor=#9E916F;" vertex="1" parent="1">
          <mxGeometry x="667" y="1327" width="309" height="104" as="geometry" />
        </mxCell>
        <mxCell id="F4lnl1_emO5UcTYqvdqc-159" value="Stores: payment_id, customer_name,&#xa;customer_phone, reference_number,&#xa;advance_amount, balance_amount,&#xa;payment_method, notes, payment_date,&#xa;branch_id, created_at, updated_at" style="fillColor=#ffff88;strokeColor=#9E916F;" vertex="1" parent="1">
          <mxGeometry x="1207" y="2951" width="302" height="122" as="geometry" />
        </mxCell>
        <mxCell id="F4lnl1_emO5UcTYqvdqc-160" value="Role-based access:&#xa;Admin: All branches&#xa;Others: Own branch only" style="fillColor=#ffff88;strokeColor=#9E916F;" vertex="1" parent="1">
          <mxGeometry x="973" y="3073" width="195" height="85" as="geometry" />
        </mxCell>
      </root>
    </mxGraphModel>
  </diagram>
</mxfile>
